<?xml version="1.0" standalone="no"?>
<!DOCTYPE svg PUBLIC "-//W3C//DTD SVG 20010904//EN"
 "http://www.w3.org/TR/2001/REC-SVG-20010904/DTD/svg10.dtd">
<svg version="1.0" xmlns="http://www.w3.org/2000/svg"
 width="512.000000pt" height="512.000000pt" viewBox="0 0 512.000000 512.000000"
 preserveAspectRatio="xMidYMid meet">

<g transform="translate(0.000000,512.000000) scale(0.100000,-0.100000)"
fill="#ffffff" stroke="none">
<path d="M430 5101 c-197 -63 -357 -225 -414 -420 -14 -49 -16 -258 -16 -2116
0 -1858 2 -2067 16 -2116 48 -161 167 -305 315 -378 154 -76 -5 -71 2224 -71
2229 0 2070 -5 2224 71 163 80 288 244 326 424 13 60 15 352 15 2070 0 2229 5
2070 -71 2225 -73 146 -218 267 -378 314 -49 14 -257 16 -2120 15 -1948 0
-2069 -1 -2121 -18z m4215 -254 c79 -37 156 -114 192 -191 l28 -61 0 -2030 0
-2030 -28 -60 c-37 -79 -114 -156 -191 -192 l-61 -28 -2030 0 -2030 0 -61 28
c-77 36 -154 113 -191 192 l-28 60 0 2030 0 2030 28 60 c47 101 134 177 242
211 32 10 447 12 2055 11 l2015 -2 60 -28z"/>
<path d="M781 4483 c-88 -31 -161 -136 -161 -233 0 -60 30 -130 75 -175 117
-117 308 -91 392 53 24 40 28 58 28 122 0 64 -4 82 -28 122 -63 108 -187 153
-306 111z"/>
<path d="M4151 4483 c-88 -31 -161 -136 -161 -233 0 -60 30 -130 75 -175 117
-117 308 -91 392 53 24 40 28 58 28 122 0 64 -4 82 -28 122 -63 108 -187 153
-306 111z"/>
<path d="M2345 3890 c-165 -26 -305 -91 -413 -194 -87 -83 -142 -163 -183
-271 -28 -71 -73 -254 -65 -262 3 -3 300 -43 319 -43 4 0 7 8 7 17 0 41 35
155 71 231 118 247 399 342 657 220 177 -83 296 -296 263 -471 -22 -122 -76
-194 -292 -391 -208 -191 -272 -275 -323 -427 -28 -83 -48 -253 -39 -332 l6
-47 147 0 147 0 7 108 c3 59 13 131 20 159 30 113 50 139 290 378 236 235 272
280 322 403 52 130 55 300 8 441 -77 229 -269 398 -526 462 -96 23 -327 34
-423 19z"/>
<path d="M2290 1475 l0 -175 180 0 180 0 0 175 0 175 -180 0 -180 0 0 -175z"/>
<path d="M781 1113 c-88 -31 -161 -136 -161 -233 0 -60 30 -130 75 -175 117
-117 308 -91 392 53 24 40 28 58 28 122 0 64 -4 82 -28 122 -63 108 -187 153
-306 111z"/>
<path d="M4151 1113 c-88 -31 -161 -136 -161 -233 0 -60 30 -130 75 -175 117
-117 308 -91 392 53 24 40 28 58 28 122 0 64 -4 82 -28 122 -63 108 -187 153
-306 111z"/>
</g>
</svg>
